<?xml version="1.0" standalone="no"?>
<!DOCTYPE svg PUBLIC "-//W3C//DTD SVG 20010904//EN"
 "http://www.w3.org/TR/2001/REC-SVG-20010904/DTD/svg10.dtd">
<svg version="1.0" xmlns="http://www.w3.org/2000/svg"
 width="512.000000pt" height="512.000000pt" viewBox="0 0 512.000000 512.000000"
 preserveAspectRatio="xMidYMid meet">

<g transform="translate(0.000000,512.000000) scale(0.100000,-0.100000)"
fill="#000000" stroke="none">
<path d="M0 2560 l0 -2560 2560 0 2560 0 0 2560 0 2560 -2560 0 -2560 0 0
-2560z m2945 1173 c200 -44 317 -159 345 -338 36 -226 -88 -485 -273 -574
l-59 -28 45 -7 c65 -10 159 -60 202 -108 66 -73 88 -137 93 -268 5 -139 -13
-232 -63 -339 -72 -150 -202 -294 -365 -401 -178 -116 -327 -160 -648 -189
-497 -46 -722 -64 -727 -59 -3 2 44 236 104 519 60 283 169 793 241 1134 73
341 133 621 134 621 0 1 147 13 326 28 179 15 334 29 345 31 40 7 232 -6 300
-22z m735 -2390 c-1 -26 -46 -222 -53 -229 -7 -8 -1589 -146 -1595 -139 -6 6
38 227 48 238 6 7 1457 142 1568 146 24 1 32 -3 32 -16z"/>
<path d="M2472 3241 c-12 -7 -82 -300 -82 -340 0 -20 141 -8 211 19 92 34 158
125 159 218 0 89 -36 112 -177 112 -54 0 -104 -4 -111 -9z"/>
<path d="M2360 2391 c-80 -9 -86 -12 -93 -53 -3 -18 -21 -107 -40 -197 l-35
-164 95 7 c118 9 189 34 241 87 85 84 115 218 62 274 -14 15 -34 31 -45 35
-35 13 -117 18 -185 11z"/>
</g>
</svg>
